<svg fill="none" height="48" viewBox="0 0 48 48" width="48" xmlns="http://www.w3.org/2000/svg"><path clip-rule="evenodd" d="m48 0h-48v48h48zm-30 35c0 2.7614-2.2386 5-5 5s-5-2.2386-5-5 2.2386-5 5-5c.8176 0 1.5893.1962 2.2707.5442l-1.476 2.8963c-.2384-.1218-.5085-.1905-.7947-.1905-.9665 0-1.75.7835-1.75 1.75s.7835 1.75 1.75 1.75 1.75-.7835 1.75-1.75c0-.2965-.0737-.5757-.2038-.8204l2.8714-1.5236c.3718.6991.5824 1.497.5824 2.344zm-1.821-6.2382 2.541-4.9863-2.2894-4.6723c-1.0138.571-2.1842.8968-3.4306.8968-3.86599 0-7-3.134-7-7 0-3.86599 3.13401-7 7-7 3.866 0 7 3.13401 7 7 0 1.0746-.2422 2.0927-.6749 3.0026l4.6749 2.3852 4.6749-2.3852c-.4327-.9099-.6749-1.928-.6749-3.0026 0-3.86599 3.134-7 7-7s7 3.13401 7 7c0 3.866-3.134 7-7 7-1.2464 0-2.4168-.3258-3.4306-.8968l-2.2894 4.6723 2.541 4.9863c.954-.4871 2.0344-.7618 3.179-.7618 3.866 0 7 3.134 7 7s-3.134 7-7 7-7-3.134-7-7c0-1.1859.2949-2.3029.8153-3.2817l-4.8153-2.555-4.8153 2.555c.5204.9788.8153 2.0958.8153 3.2817 0 3.866-3.134 7-7 7-3.86599 0-7-3.134-7-7s3.13401-7 7-7c1.1446 0 2.225.2747 3.179.7618zm14.4034 3.8942c-.3718.6991-.5824 1.4969-.5824 2.344 0 2.7614 2.2386 5 5 5s5-2.2386 5-5-2.2386-5-5-5c-.8176 0-1.5893.1962-2.2707.5442l1.476 2.8963c.2384-.1218.5086-.1905.7947-.1905.9665 0 1.75.7835 1.75 1.75s-.7835 1.75-1.75 1.75-1.75-.7835-1.75-1.75c0-.2965.0737-.5757.2038-.8204zm1.8693-15.3532c.7462.4429 1.6176.6972 2.5483.6972 2.7614 0 5-2.2386 5-5s-2.2386-5-5-5-5 2.2386-5 5c0 .7473.1639 1.4563.4578 2.093l2.9023-1.4808c-.0712-.1905-.1101-.3968-.1101-.6122 0-.9665.7835-1.75 1.75-1.75s1.75.7835 1.75 1.75-.7835 1.75-1.75 1.75c-.419 0-.8037-.1473-1.105-.3929zm-14.9095-2.2098c.2939-.6367.4578-1.3457.4578-2.093 0-2.7614-2.2386-5-5-5s-5 2.2386-5 5 2.2386 5 5 5c.9307 0 1.8021-.2543 2.5484-.6972l-1.4434-2.9457c-.3013.2456-.686.3929-1.105.3929-.9665 0-1.75-.7835-1.75-1.75s.7835-1.75 1.75-1.75 1.75.7835 1.75 1.75c0 .2154-.0389.4217-.1101.6122z" fill="#333" fill-rule="evenodd"/></svg>